<svg width="594" height="594" viewBox="0 0 594 594" fill="none" xmlns="http://www.w3.org/2000/svg">
<g opacity="0.75">
<path d="M470.949 251.804L470.063 245.894C469.902 244.858 469.948 243.801 470.198 242.783C470.448 241.765 470.897 240.806 471.52 239.963C472.774 238.259 474.653 237.121 476.744 236.801L464.729 238.595C462.874 238.883 461.18 239.814 459.942 241.225C458.705 242.636 458.003 244.437 457.958 246.313L435.142 249.269C438.005 251.964 440.644 254.588 442.722 256.905L459.244 254.907C459.809 256.712 461.001 258.255 462.603 259.259C464.206 260.263 466.115 260.662 467.985 260.383L479.924 258.583C478.888 258.737 477.832 258.683 476.817 258.425C475.803 258.166 474.85 257.708 474.014 257.076C473.179 256.445 472.477 255.654 471.951 254.749C471.425 253.844 471.084 252.842 470.949 251.804Z" fill="#04070B"/>
<path d="M202.35 192.736C188.088 186.182 166.527 157.928 162.541 165.564C160.472 169.494 187.19 219.687 189.211 226.987C198.354 220.953 208.774 217.128 219.649 215.813C215.991 208.682 216.552 199.306 202.35 192.736Z" fill="#04070B"/>
<path d="M148.784 312.384C145.089 311.887 141.331 312.116 137.723 313.058C122.451 316.649 89.4391 307.5 89.6637 316.09C89.8322 321.758 147.942 344.838 150.3 347.193C153.42 337.309 158.672 328.229 165.685 320.597C160.472 318.168 156.252 313.564 148.784 312.384Z" fill="#04070B"/>
<path d="M520.135 82.4562C515.576 82.7374 511.202 84.3651 507.569 87.1332C503.935 89.9013 501.205 93.6853 499.723 98.0062C498.614 101.236 498.235 104.671 498.613 108.065C498.992 111.458 500.118 114.726 501.912 117.631C503.705 120.537 506.121 123.009 508.985 124.869C511.849 126.728 515.09 127.929 518.474 128.385C521.858 128.843 525.301 128.545 528.556 127.512C531.81 126.479 534.795 124.737 537.295 122.411C539.795 120.085 541.748 117.234 543.014 114.062C544.279 110.891 544.825 107.478 544.612 104.07C544.234 97.9576 541.443 92.2454 536.855 88.1892C534.582 86.1809 531.935 84.6407 529.066 83.657C526.197 82.6732 523.162 82.2652 520.135 82.4562ZM509.41 116.322C508.412 116.019 507.537 115.403 506.916 114.566C506.294 113.728 505.958 112.712 505.958 111.669C505.958 110.625 506.293 109.609 506.914 108.771C507.536 107.933 508.41 107.317 509.408 107.013C510.407 106.71 511.476 106.736 512.458 107.087C513.441 107.438 514.285 108.095 514.865 108.962C515.445 109.83 515.731 110.86 515.681 111.902C515.63 112.945 515.246 113.943 514.585 114.75C513.766 115.747 512.586 116.379 511.302 116.508C510.663 116.573 510.022 116.508 509.41 116.322ZM524.626 102.847C523.294 102.448 522.111 101.662 521.225 100.591C520.338 99.5188 519.79 98.2084 519.649 96.8251C519.507 95.4417 519.779 94.0474 520.43 92.8184C521.08 91.5894 522.081 90.5809 523.304 89.9203C524.528 89.2598 525.92 88.9768 527.305 89.1071C528.689 89.2375 530.004 89.7754 531.083 90.6527C532.162 91.5301 532.956 92.7076 533.366 94.0364C533.776 95.3653 533.783 96.7858 533.386 98.1185C532.845 99.9028 531.621 101.401 529.98 102.287C528.339 103.172 526.415 103.374 524.626 102.847ZM528.276 118.805C527.936 118.709 527.618 118.547 527.341 118.327C527.064 118.108 526.833 117.835 526.662 117.526C526.491 117.216 526.384 116.876 526.346 116.524C526.308 116.173 526.34 115.817 526.441 115.478C526.542 115.14 526.709 114.824 526.933 114.551C527.157 114.277 527.433 114.05 527.745 113.885C528.057 113.719 528.399 113.616 528.751 113.584C529.103 113.551 529.458 113.589 529.795 113.695C530.463 113.905 531.021 114.369 531.35 114.987C531.678 115.605 531.751 116.327 531.551 116.998C531.352 117.668 530.896 118.234 530.284 118.572C529.671 118.91 528.95 118.994 528.276 118.805Z" fill="#04070B"/>
<path d="M491.724 407.889C492.225 410.421 491.964 413.046 490.973 415.429C489.982 417.813 488.305 419.849 486.156 421.279C484.007 422.708 481.483 423.469 478.903 423.466C476.322 423.462 473.8 422.694 471.655 421.258C469.873 420.063 468.412 418.447 467.403 416.553C466.394 414.659 465.868 412.546 465.871 410.4C465.874 408.254 466.406 406.141 467.421 404.25C468.435 402.359 469.9 400.747 471.686 399.557C473.472 398.368 475.524 397.637 477.66 397.429C479.796 397.222 481.95 397.544 483.931 398.368C485.913 399.192 487.661 400.492 489.02 402.153C490.379 403.814 491.308 405.784 491.724 407.889Z" fill="#04070B"/>
<path d="M417.434 154.783C416.6 126.204 437.768 131.819 449.054 169.719C444.562 150.516 472.536 127.271 474.533 237.537C473.499 238.003 472.595 238.713 471.894 239.605C465.168 223.5 452.337 233.243 454.095 246.402C454.329 248.163 453.052 249.094 450.393 246.189C447.606 243.072 444.358 244.8 444.051 248.157L436.684 249.056C425.943 238.329 417.25 225.731 411.033 211.883C398.512 185.662 405.587 155.23 426.754 198.351C420.941 184.542 417.78 169.762 417.434 154.783Z" fill="#04070B"/>
<path d="M449.101 256.63C450.245 260.353 450.756 264.245 450.614 268.14C450.079 263.545 447.898 260.309 444.553 256.774L449.101 256.63Z" fill="#04070B"/>
<path d="M373.706 174.763C372.752 172.695 371.342 169.887 370 167.304C374.321 167.86 375.559 170.777 373.706 174.763Z" fill="#04070B"/>
<path d="M354.785 276.113C350.574 277.91 349.395 285.827 350.967 296.888L375.84 292.733C369.268 283.019 360.568 273.755 354.785 276.113Z" fill="#04070B"/>
<path d="M400.093 366.742C399.138 372.244 396.219 375.669 390.829 373.311C393.917 371.171 397.005 368.982 400.093 366.742Z" fill="#04070B"/>
<path d="M340.807 194.14C335.697 193.859 334.01 190.715 336.48 186.055C337.772 188.827 339.214 191.528 340.807 194.14Z" fill="#04070B"/>
<path d="M455.508 287.062C455.508 287.695 455.256 288.302 454.809 288.75C454.361 289.198 453.753 289.45 453.12 289.45C452.487 289.45 451.88 289.198 451.432 288.75C450.984 288.302 450.732 287.695 450.732 287.062C450.732 286.429 450.984 285.821 451.432 285.373C451.88 284.926 452.487 284.674 453.12 284.674C453.753 284.674 454.361 284.926 454.809 285.373C455.256 285.821 455.508 286.429 455.508 287.062Z" fill="#04070B"/>
<path d="M494.756 273.811C494.708 274.412 494.436 274.972 493.994 275.381C493.552 275.79 492.972 276.017 492.369 276.017C491.767 276.017 491.187 275.79 490.744 275.381C490.302 274.972 490.03 274.412 489.983 273.811C490.02 273.203 490.288 272.633 490.731 272.215C491.174 271.798 491.76 271.566 492.369 271.566C492.978 271.566 493.564 271.798 494.007 272.215C494.451 272.633 494.718 273.203 494.756 273.811Z" fill="#04070B"/>
<path d="M510.362 231.254C510.361 231.575 510.297 231.893 510.171 232.188C510.046 232.484 509.862 232.751 509.631 232.974C509.4 233.197 509.127 233.371 508.827 233.486C508.527 233.601 508.207 233.654 507.887 233.643C507.566 233.631 507.25 233.556 506.96 233.42C506.669 233.284 506.408 233.091 506.193 232.852C505.979 232.614 505.814 232.334 505.71 232.031C505.606 231.727 505.563 231.406 505.586 231.086C505.63 230.467 505.911 229.891 506.372 229.476C506.832 229.062 507.436 228.842 508.055 228.864C508.674 228.886 509.261 229.147 509.691 229.593C510.121 230.039 510.362 230.634 510.362 231.254Z" fill="#04070B"/>
<path d="M547.301 209.918C547.264 210.525 546.996 211.096 546.553 211.513C546.109 211.93 545.523 212.163 544.915 212.163C544.306 212.163 543.72 211.93 543.276 211.513C542.833 211.096 542.565 210.525 542.528 209.918C542.565 209.31 542.833 208.739 543.276 208.322C543.72 207.905 544.306 207.672 544.915 207.672C545.523 207.672 546.109 207.905 546.553 208.322C546.996 208.739 547.264 209.31 547.301 209.918Z" fill="#04070B"/>
<path d="M445.797 326.871C445.775 327.489 445.513 328.074 445.068 328.504C444.623 328.934 444.028 329.175 443.41 329.176C442.792 329.173 442.199 328.932 441.754 328.502C441.31 328.073 441.049 327.488 441.025 326.871C441.048 326.253 441.309 325.668 441.753 325.238C442.198 324.809 442.791 324.568 443.41 324.566C444.028 324.568 444.621 324.809 445.066 325.239C445.511 325.668 445.773 326.253 445.797 326.871Z" fill="#04070B"/>
<path d="M403.743 312.497C403.72 313.115 403.458 313.701 403.013 314.13C402.568 314.56 401.974 314.801 401.355 314.802C400.737 314.799 400.144 314.558 399.7 314.129C399.255 313.699 398.994 313.114 398.97 312.497C398.993 311.879 399.254 311.294 399.699 310.864C400.143 310.435 400.737 310.194 401.355 310.192C401.973 310.194 402.567 310.436 403.012 310.865C403.457 311.294 403.718 311.879 403.743 312.497Z" fill="#04070B"/>
<path d="M416.208 270.995C416.171 271.602 415.903 272.173 415.46 272.59C415.016 273.008 414.43 273.24 413.821 273.24C413.212 273.24 412.627 273.008 412.183 272.59C411.74 272.173 411.472 271.602 411.435 270.995C411.472 270.387 411.74 269.816 412.183 269.399C412.627 268.982 413.212 268.75 413.821 268.75C414.43 268.75 415.016 268.982 415.46 269.399C415.903 269.816 416.171 270.387 416.208 270.995Z" fill="#04070B"/>
<path d="M405.258 227.66C405.211 228.261 404.939 228.821 404.497 229.23C404.055 229.639 403.474 229.866 402.872 229.866C402.27 229.866 401.69 229.639 401.247 229.23C400.805 228.821 400.533 228.261 400.486 227.66C400.523 227.053 400.79 226.482 401.234 226.065C401.677 225.648 402.263 225.415 402.872 225.415C403.481 225.415 404.067 225.648 404.51 226.065C404.954 226.482 405.221 227.053 405.258 227.66Z" fill="#04070B"/>
<path d="M359.333 209.918C359.296 210.525 359.028 211.096 358.585 211.513C358.141 211.93 357.555 212.163 356.946 212.163C356.337 212.163 355.752 211.93 355.308 211.513C354.865 211.096 354.597 210.525 354.56 209.918C354.597 209.31 354.865 208.739 355.308 208.322C355.752 207.905 356.337 207.672 356.946 207.672C357.555 207.672 358.141 207.905 358.585 208.322C359.028 208.739 359.296 209.31 359.333 209.918Z" fill="#04070B"/>
<path d="M389.706 275.75H381.059L403.743 297.561L389.706 275.75Z" fill="#04070B"/>
<path d="M463.256 271.116C461.139 270.552 459.101 269.722 457.192 268.645L462.919 276.225C462.768 274.515 462.882 272.791 463.256 271.116Z" fill="#04070B"/>
<path d="M464.604 285.265C466.643 295.638 464.891 306.397 459.663 315.585L467.524 308.679C468.567 300.753 467.562 292.692 464.604 285.265Z" fill="#04070B"/>
<path d="M474.542 237.542C472.521 127.271 444.562 150.516 449.054 169.719C437.768 131.819 416.607 126.204 417.434 154.783C417.783 169.762 420.945 184.541 426.755 198.351C405.587 155.233 398.518 185.659 411.033 211.883C417.232 225.699 425.897 238.27 436.604 248.979M450.615 268.14C450.08 263.533 447.884 260.297 444.527 256.751" stroke="#C987D9" stroke-linecap="round" stroke-linejoin="round"/>
<path d="M175.174 374.313C156.734 375.602 138.259 372.341 121.375 364.816C104.491 357.291 89.7146 345.733 78.3449 331.158C66.9753 316.583 59.3608 299.438 56.1713 281.23C52.9817 263.023 54.3147 244.31 60.0531 226.738C64.8228 212.109 72.5344 198.61 82.7139 187.072C92.8934 175.534 105.326 166.199 119.246 159.643C133.166 153.087 148.281 149.447 163.659 148.949C179.038 148.45 194.357 151.102 208.673 156.742C222.989 162.382 236 170.891 246.906 181.746C257.812 192.6 266.382 205.571 272.09 219.86C277.797 234.149 280.522 249.455 280.096 264.836C279.67 280.217 276.102 295.348 269.612 309.299" stroke="#C987D9" stroke-linecap="round" stroke-linejoin="round"/>
<path d="M199.654 283.917C183.147 293.856 165.404 303.85 148.784 312.384" stroke="#C987D9" stroke-linecap="round" stroke-linejoin="round"/>
<path d="M250.309 185.437C286.524 171.74 312.246 167.748 317.515 176.847C324.433 188.8 293.933 220.137 244.357 254.948" stroke="#C987D9" stroke-linecap="round" stroke-linejoin="round"/>
<path d="M112.572 329.847C61.9827 352.471 23.8051 361.467 17.2358 350.113C11.9018 340.905 28.8023 320.133 59.6245 295.147" stroke="#C987D9" stroke-linecap="round" stroke-linejoin="round"/>
<path d="M381.059 275.75L403.743 297.561L336.031 192.175" stroke="#C987D9" stroke-linecap="round" stroke-linejoin="round"/>
<path d="M475.272 257.865C475.385 279.594 457.193 268.645 457.193 268.645" stroke="#C987D9" stroke-linecap="round" stroke-linejoin="round"/>
<path d="M457.193 268.645L462.923 276.098" stroke="#C987D9" stroke-linecap="round" stroke-linejoin="round"/>
<path d="M471.96 239.451C465.532 223.789 452.092 232.856 454.078 246.621C454.273 247.977 453.191 249.28 450.402 246.189C447.642 243.116 444.415 244.806 444.072 248.113M445.012 268.926C448.717 272.688 453.153 272.8 449.11 256.63C448.921 256.493 448.733 256.353 448.549 256.21" stroke="#C987D9" stroke-linecap="round" stroke-linejoin="round"/>
<path d="M374.041 169.494C389.933 196.702 427.192 257.082 452.816 275.72C454.235 276.899 455.904 277.739 457.696 278.177C459.488 278.615 461.356 278.639 463.159 278.247C462.797 275.861 462.835 273.432 463.271 271.06" stroke="#C987D9" stroke-linecap="round" stroke-linejoin="round"/>
<path d="M467.074 309.116C470.163 299.234 464.604 285.253 464.604 285.253C464.604 285.253 477.781 327.73 398.019 372.519" stroke="#C987D9" stroke-linecap="round" stroke-linejoin="round"/>
<path d="M389.706 275.75H358.112" stroke="#C987D9" stroke-linecap="round" stroke-linejoin="round"/>
<path d="M459.663 315.585C459.663 315.585 516.148 268.598 555.336 205.145C550.406 196.664 542.567 190.259 533.273 187.119C520.882 204.99 507.463 222.125 493.083 238.438" stroke="#C987D9" stroke-linecap="round" stroke-linejoin="round"/>
<path d="M375.902 367.182C340.645 378.299 302.91 384.215 263.557 387.788C255.686 388.494 247.805 386.567 241.148 382.309C234.492 378.051 229.438 371.703 226.78 364.262C213.127 325.919 200.464 288.867 183.493 231.254C189.8 226.024 196.997 221.972 204.74 219.291C211.562 216.956 218.679 215.596 225.881 215.252L270.173 310.476L375.84 292.745" stroke="#C987D9" stroke-linecap="round" stroke-linejoin="round"/>
<path d="M390.829 373.302C406.716 380.252 400.33 344.114 389.706 318.841C383.71 304.577 364.977 270.223 354.28 276.423C350.479 278.625 349.46 286.338 350.967 296.944" stroke="#C987D9" stroke-linecap="round" stroke-linejoin="round"/>
<path d="M217.899 339.052L169.334 316.888C158.727 326.929 151.406 339.944 148.335 354.224C183.374 381.594 220.828 405.723 260.235 426.314C264.929 428.819 270.126 430.236 275.442 430.46C280.758 430.683 286.057 429.708 290.945 427.606C329.436 411.349 366.035 390.936 400.093 366.73" stroke="#C987D9" stroke-linecap="round" stroke-linejoin="round"/>
<path d="M219.64 215.813C208.765 217.128 198.344 220.953 189.202 226.987C187.18 219.687 160.463 169.497 162.532 165.564C166.539 157.937 188.082 186.158 202.34 192.751C216.558 199.297 215.99 208.682 219.64 215.813Z" stroke="#C987D9" stroke-linecap="round" stroke-linejoin="round"/>
<path d="M148.784 312.384C145.089 311.887 141.331 312.116 137.723 313.058C122.451 316.649 89.4391 307.5 89.6637 316.09C89.8322 321.758 147.942 344.838 150.3 347.193C153.42 337.309 158.672 328.229 165.685 320.597C160.472 318.168 156.252 313.564 148.784 312.384Z" stroke="#C987D9" stroke-linecap="round" stroke-linejoin="round"/>
<path d="M347.879 137.827C347.879 137.827 347.879 131.145 347.822 120.758C347.763 109.865 351.989 107.779 353.606 120.14C353.78 121.488 355.852 135.019 356.469 139.006C356.806 141.196 358.375 147.242 360.4 146.985C365.952 146.261 376.416 134.112 379.711 137.72C381.857 140.084 375.4 148.619 370.615 154.396C369.267 156.019 368.43 158.006 368.211 160.105C367.991 162.204 368.399 164.32 369.383 166.187C369.549 166.518 373.408 174.281 373.707 174.757" stroke="#C987D9" stroke-linecap="round" stroke-linejoin="round"/>
<path d="M348.715 140.578C348.715 140.578 341.531 117.838 341.079 116.322C337.515 104.41 333.709 107.117 335.464 117.838C337.137 128.06 339.01 140.522 339.01 140.522" stroke="#C987D9" stroke-linecap="round" stroke-linejoin="round"/>
<path d="M340.804 144.219C337.326 137.296 334.267 130.172 331.643 122.883C327.364 111.21 324.164 114.126 326.141 124.848C327.216 131.472 328.797 138.004 330.869 144.387" stroke="#C987D9" stroke-linecap="round" stroke-linejoin="round"/>
<path d="M336.448 186.114C334.025 190.742 335.721 193.862 340.807 194.14C351.15 194.702 369.36 184.042 373.707 174.763C375.574 170.783 374.321 167.866 370.001 167.304" stroke="#C987D9" stroke-linecap="round" stroke-linejoin="round"/>
<path d="M334.847 150.241C330.766 144.832 327.355 138.947 324.69 132.717C319.817 121.192 316.752 124.357 319.468 135.3C320.192 138.22 320.946 140.744 321.602 142.88C323.523 148.997 325.364 155.176 327.104 161.353C329.007 168.15 335.633 186.563 340.807 194.155" stroke="#C987D9" stroke-linecap="round" stroke-linejoin="round"/>
<path d="M352.371 139.455C341.927 142.768 336.032 148.102 329.238 156.749" stroke="#C987D9" stroke-linecap="round" stroke-linejoin="round"/>
<path d="M354.953 144.34C351.275 148.053 348.412 152.493 346.546 157.375C344.68 162.257 343.853 167.475 344.117 172.695" stroke="#C987D9" stroke-linecap="round" stroke-linejoin="round"/>
<path d="M535.631 188.076C535.631 188.076 542.706 175.05 540.626 164.834C538.158 152.718 540.147 152.467 546.184 163.037C550.188 170.044 552.473 186.841 552.473 186.841" stroke="#C987D9" stroke-linecap="round" stroke-linejoin="round"/>
<path d="M553.652 202.45C553.652 202.45 564.429 184.876 567.015 173.029C569.258 162.753 565.387 167.361 563.983 170.664" stroke="#C987D9" stroke-linecap="round" stroke-linejoin="round"/>
<path d="M554.855 164.435C555.407 160.627 555.587 156.774 555.392 152.93C554.662 142.038 552.071 142.765 550.339 152.144C549.557 156.546 548.506 160.896 547.195 165.171" stroke="#C987D9" stroke-linecap="round" stroke-linejoin="round"/>
<path d="M552.81 162.083C557.623 167.231 560.671 173.779 561.513 180.777" stroke="#C987D9" stroke-linecap="round" stroke-linejoin="round"/>
<path d="M555.392 158.601C556.234 156.237 557.023 153.598 557.756 150.685C560.327 140.463 562.585 142.543 562.08 151.751C561.678 158.218 560.522 164.616 558.637 170.815" stroke="#C987D9" stroke-linecap="round" stroke-linejoin="round"/>
<path d="M561.513 158.433C564.152 147.316 566.796 149.112 566.061 159.163C565.429 165.903 563.782 172.508 561.176 178.756" stroke="#C987D9" stroke-linecap="round" stroke-linejoin="round"/>
<path d="M164.73 427.987L166.078 435.735" stroke="#C987D9" stroke-linecap="round" stroke-linejoin="round"/>
<path d="M160.07 444.326L152.266 445.73" stroke="#C987D9" stroke-linecap="round" stroke-linejoin="round"/>
<path d="M182.473 440.396L174.668 441.743" stroke="#C987D9" stroke-linecap="round" stroke-linejoin="round"/>
<path d="M170.008 458.139L168.661 450.334" stroke="#C987D9" stroke-linecap="round" stroke-linejoin="round"/>
<path d="M174.657 441.743C173.212 442.01 171.721 441.838 170.375 441.249C169.029 440.66 167.891 439.681 167.106 438.439C166.584 437.616 166.231 436.697 166.066 435.735C166.243 436.695 166.228 437.68 166.02 438.633C165.813 439.586 165.419 440.489 164.86 441.288C164.301 442.087 163.588 442.768 162.764 443.289C161.94 443.811 161.02 444.163 160.058 444.326C161.017 444.152 162.001 444.17 162.953 444.377C163.906 444.585 164.808 444.978 165.608 445.535C166.408 446.093 167.089 446.805 167.611 447.629C168.133 448.453 168.486 449.372 168.649 450.334C168.472 449.375 168.487 448.39 168.694 447.436C168.901 446.483 169.296 445.581 169.855 444.781C170.414 443.982 171.126 443.302 171.951 442.78C172.775 442.258 173.695 441.906 174.657 441.743Z" stroke="#C987D9" stroke-linecap="round" stroke-linejoin="round"/>
<path d="M276.911 94.8737L277.865 100.32" stroke="#C987D9" stroke-linecap="round" stroke-linejoin="round"/>
<path d="M273.598 106.384L268.152 107.338" stroke="#C987D9" stroke-linecap="round" stroke-linejoin="round"/>
<path d="M289.429 103.633L283.929 104.587" stroke="#C987D9" stroke-linecap="round" stroke-linejoin="round"/>
<path d="M280.617 116.154L279.662 110.651" stroke="#C987D9" stroke-linecap="round" stroke-linejoin="round"/>
<path d="M283.929 104.587C283.251 104.707 282.555 104.692 281.882 104.542C281.21 104.393 280.573 104.111 280.01 103.715C279.446 103.318 278.967 102.814 278.599 102.231C278.231 101.649 277.981 100.999 277.865 100.32C277.986 100.999 277.972 101.696 277.822 102.369C277.673 103.043 277.392 103.68 276.995 104.244C276.599 104.809 276.094 105.289 275.511 105.658C274.928 106.027 274.278 106.276 273.598 106.393C274.277 106.273 274.972 106.288 275.645 106.438C276.318 106.587 276.954 106.869 277.518 107.265C278.081 107.662 278.561 108.166 278.929 108.749C279.297 109.331 279.546 109.981 279.662 110.66C279.541 109.981 279.556 109.284 279.705 108.611C279.854 107.937 280.135 107.3 280.532 106.736C280.929 106.171 281.433 105.691 282.016 105.322C282.599 104.953 283.249 104.704 283.929 104.587Z" stroke="#C987D9" stroke-linecap="round" stroke-linejoin="round"/>
<path d="M546.689 247.93L549.104 261.515" stroke="#C987D9" stroke-linecap="round" stroke-linejoin="round"/>
<path d="M538.548 276.562L524.963 278.977" stroke="#C987D9" stroke-linecap="round" stroke-linejoin="round"/>
<path d="M577.739 269.656L564.151 272.07" stroke="#C987D9" stroke-linecap="round" stroke-linejoin="round"/>
<path d="M556.01 300.65L553.596 287.062" stroke="#C987D9" stroke-linecap="round" stroke-linejoin="round"/>
<path d="M564.145 272.07C562.464 272.365 560.741 272.326 559.075 271.956C557.409 271.585 555.833 270.889 554.435 269.909C553.038 268.929 551.847 267.683 550.932 266.243C550.016 264.802 549.393 263.196 549.098 261.515C549.692 264.91 548.914 268.402 546.935 271.223C544.955 274.045 541.937 275.965 538.542 276.562C540.223 276.267 541.946 276.306 543.612 276.677C545.278 277.048 546.855 277.743 548.252 278.724C549.649 279.704 550.84 280.95 551.756 282.39C552.672 283.83 553.295 285.437 553.59 287.118C552.995 283.723 553.774 280.231 555.753 277.409C557.732 274.588 560.751 272.667 564.145 272.07Z" stroke="#C987D9" stroke-linecap="round" stroke-linejoin="round"/>
<path d="M478.922 410.416L374.771 453.197" stroke="#C987D9" stroke-linecap="round" stroke-linejoin="round" stroke-dasharray="6 8"/>
<path d="M350.181 485.033L478.922 410.416L322.107 532.363" stroke="#C987D9" stroke-linecap="round" stroke-linejoin="round" stroke-dasharray="6 8"/>
<path d="M491.724 407.889C492.225 410.421 491.964 413.046 490.973 415.429C489.982 417.813 488.305 419.849 486.156 421.279C484.007 422.708 481.483 423.469 478.903 423.466C476.322 423.462 473.8 422.694 471.655 421.258C469.873 420.063 468.412 418.447 467.403 416.553C466.394 414.659 465.868 412.546 465.871 410.4C465.874 408.254 466.406 406.141 467.421 404.25C468.435 402.359 469.9 400.747 471.686 399.557C473.472 398.368 475.524 397.637 477.66 397.429C479.796 397.222 481.95 397.544 483.931 398.368C485.913 399.192 487.661 400.492 489.02 402.153C490.379 403.814 491.308 405.784 491.724 407.889Z" stroke="#C987D9" stroke-linecap="round" stroke-linejoin="round"/>
<path d="M483.695 235.858C546.24 173.927 437.432 123.562 499.977 61.6371" stroke="#C987D9" stroke-linecap="round" stroke-linejoin="round" stroke-dasharray="6 8"/>
<path d="M209.028 217.947L249.51 327.825" stroke="#C987D9" stroke-linecap="round" stroke-linejoin="round"/>
<path d="M249.511 327.825C251.527 333.274 255.372 337.854 260.39 340.782C265.408 343.711 271.287 344.806 277.023 343.881" stroke="#C987D9" stroke-linecap="round" stroke-linejoin="round"/>
<path d="M277.079 343.881L392.232 325.13" stroke="#C987D9" stroke-linecap="round" stroke-linejoin="round"/>
<path d="M442.709 256.913L459.438 254.892L458.147 246.302L435.129 249.277L442.709 256.913Z" stroke="#C987D9" stroke-linecap="round" stroke-linejoin="round"/>
<path d="M476.732 236.869L464.717 238.665C463.157 238.905 461.703 239.602 460.539 240.667C459.375 241.732 458.552 243.118 458.174 244.65C457.923 245.667 457.875 246.725 458.035 247.761L458.921 253.672C459.23 255.762 460.355 257.645 462.049 258.908C463.744 260.17 465.87 260.709 467.961 260.406L479.924 258.583" stroke="#C987D9" stroke-linecap="round" stroke-linejoin="round"/>
<path d="M488.916 257.247C489.952 257.09 490.947 256.73 491.844 256.187C492.74 255.645 493.521 254.93 494.141 254.085C495.392 252.379 495.916 250.246 495.598 248.154L494.711 242.244C494.405 240.152 493.281 238.268 491.586 237.004C489.891 235.741 487.763 235.202 485.671 235.506L476.744 236.854C475.184 237.094 473.731 237.79 472.566 238.855C471.402 239.92 470.579 241.306 470.201 242.838C469.95 243.856 469.903 244.914 470.062 245.95L470.949 251.845C471.169 253.4 471.845 254.854 472.892 256.024C473.938 257.194 475.309 258.027 476.83 258.418C477.84 258.675 478.892 258.731 479.924 258.583L488.916 257.247Z" stroke="#C987D9" stroke-linecap="round" stroke-linejoin="round"/>
<path d="M520.134 82.4562C515.575 82.7374 511.202 84.3651 507.568 87.1332C503.935 89.9013 501.205 93.6853 499.723 98.0062C498.614 101.236 498.234 104.671 498.613 108.065C498.991 111.458 500.118 114.726 501.911 117.631C503.705 120.537 506.121 123.009 508.985 124.869C511.849 126.728 515.089 127.929 518.473 128.385C521.857 128.843 525.3 128.545 528.555 127.512C531.81 126.479 534.795 124.737 537.295 122.411C539.795 120.085 541.748 117.234 543.013 114.062C544.278 110.891 544.824 107.478 544.612 104.07C544.233 97.9576 541.443 92.2454 536.854 88.1892C534.581 86.1809 531.935 84.6407 529.065 83.657C526.196 82.6732 523.161 82.2652 520.134 82.4562ZM509.41 116.322C508.412 116.019 507.537 115.403 506.915 114.566C506.294 113.728 505.958 112.712 505.958 111.669C505.957 110.625 506.293 109.609 506.914 108.771C507.535 107.933 508.409 107.317 509.408 107.013C510.406 106.71 511.475 106.736 512.458 107.087C513.441 107.438 514.284 108.095 514.864 108.962C515.445 109.83 515.731 110.86 515.68 111.902C515.63 112.945 515.246 113.943 514.584 114.75C513.766 115.747 512.585 116.379 511.301 116.508C510.663 116.573 510.022 116.508 509.41 116.322ZM524.626 102.847C523.294 102.448 522.11 101.662 521.224 100.591C520.338 99.5188 519.79 98.2084 519.648 96.8251C519.507 95.4417 519.778 94.0474 520.429 92.8184C521.08 91.5894 522.08 90.5809 523.304 89.9203C524.528 89.2598 525.92 88.9768 527.304 89.1071C528.689 89.2375 530.003 89.7754 531.082 90.6527C532.161 91.5301 532.956 92.7076 533.366 94.0364C533.776 95.3653 533.782 96.7858 533.385 98.1185C532.844 99.9028 531.62 101.401 529.979 102.287C528.339 103.172 526.414 103.374 524.626 102.847ZM528.276 118.805C527.935 118.709 527.617 118.547 527.34 118.327C527.063 118.108 526.832 117.835 526.662 117.526C526.491 117.216 526.383 116.876 526.345 116.524C526.307 116.173 526.34 115.817 526.441 115.478C526.541 115.14 526.708 114.824 526.932 114.551C527.156 114.277 527.432 114.05 527.744 113.885C528.056 113.719 528.398 113.616 528.75 113.584C529.102 113.551 529.457 113.589 529.795 113.695C530.462 113.905 531.021 114.369 531.349 114.987C531.678 115.605 531.75 116.327 531.551 116.998C531.351 117.668 530.896 118.234 530.283 118.572C529.671 118.91 528.949 118.994 528.276 118.805Z" stroke="#C987D9"/>
</g>
</svg>
