<svg width="24" height="24" viewBox="0 0 24 24" fill="none" xmlns="http://www.w3.org/2000/svg">
<path d="M20.8125 9.75C20.8125 9.89918 20.7532 10.0423 20.6477 10.1477C20.5423 10.2532 20.3992 10.3125 20.25 10.3125C20.1008 10.3125 19.9577 10.2532 19.8523 10.1477C19.7468 10.0423 19.6875 9.89918 19.6875 9.75V5.10844L13.1484 11.6475C13.0418 11.7469 12.9008 11.801 12.755 11.7984C12.6093 11.7958 12.4703 11.7368 12.3672 11.6337C12.2642 11.5307 12.2051 11.3916 12.2026 11.2459C12.2 11.1002 12.2541 10.9591 12.3534 10.8525L18.8916 4.3125H14.25C14.1008 4.3125 13.9577 4.25324 13.8523 4.14775C13.7468 4.04226 13.6875 3.89918 13.6875 3.75C13.6875 3.60082 13.7468 3.45774 13.8523 3.35225C13.9577 3.24676 14.1008 3.1875 14.25 3.1875H20.25C20.3992 3.1875 20.5423 3.24676 20.6477 3.35225C20.7532 3.45774 20.8125 3.60082 20.8125 3.75V9.75ZM17.25 12.1875C17.1008 12.1875 16.9577 12.2468 16.8523 12.3523C16.7468 12.4577 16.6875 12.6008 16.6875 12.75V19.5C16.6875 19.5497 16.6677 19.5974 16.6326 19.6326C16.5974 19.6677 16.5497 19.6875 16.5 19.6875H4.5C4.45027 19.6875 4.40258 19.6677 4.36742 19.6326C4.33225 19.5974 4.3125 19.5497 4.3125 19.5V7.5C4.3125 7.45027 4.33225 7.40258 4.36742 7.36742C4.40258 7.33225 4.45027 7.3125 4.5 7.3125H11.25C11.3992 7.3125 11.5423 7.25324 11.6477 7.14775C11.7532 7.04226 11.8125 6.89918 11.8125 6.75C11.8125 6.60082 11.7532 6.45774 11.6477 6.35225C11.5423 6.24676 11.3992 6.1875 11.25 6.1875H4.5C4.1519 6.1875 3.81806 6.32578 3.57192 6.57192C3.32578 6.81806 3.1875 7.1519 3.1875 7.5V19.5C3.1875 19.8481 3.32578 20.1819 3.57192 20.4281C3.81806 20.6742 4.1519 20.8125 4.5 20.8125H16.5C16.8481 20.8125 17.1819 20.6742 17.4281 20.4281C17.6742 20.1819 17.8125 19.8481 17.8125 19.5V12.75C17.8125 12.6008 17.7532 12.4577 17.6477 12.3523C17.5423 12.2468 17.3992 12.1875 17.25 12.1875Z" fill="#C987D9"/>
</svg>
