<svg width="24" height="24" viewBox="0 0 24 24" fill="none" xmlns="http://www.w3.org/2000/svg">
<path d="M21.75 4.6875H15C14.402 4.68794 13.8138 4.83889 13.2895 5.12642C12.7653 5.41396 12.3218 5.82883 12 6.33281C11.6782 5.82883 11.2347 5.41396 10.7105 5.12642C10.1862 4.83889 9.59795 4.68794 9 4.6875H2.25C2.10082 4.6875 1.95774 4.74676 1.85225 4.85225C1.74676 4.95774 1.6875 5.10082 1.6875 5.25V18.75C1.6875 18.8992 1.74676 19.0423 1.85225 19.1477C1.95774 19.2532 2.10082 19.3125 2.25 19.3125H9C9.64647 19.3125 10.2665 19.5693 10.7236 20.0264C11.1807 20.4835 11.4375 21.1035 11.4375 21.75C11.4375 21.8992 11.4968 22.0423 11.6023 22.1477C11.7077 22.2532 11.8508 22.3125 12 22.3125C12.1492 22.3125 12.2923 22.2532 12.3977 22.1477C12.5032 22.0423 12.5625 21.8992 12.5625 21.75C12.5625 21.1035 12.8193 20.4835 13.2764 20.0264C13.7335 19.5693 14.3535 19.3125 15 19.3125H21.75C21.8992 19.3125 22.0423 19.2532 22.1477 19.1477C22.2532 19.0423 22.3125 18.8992 22.3125 18.75V5.25C22.3125 5.10082 22.2532 4.95774 22.1477 4.85225C22.0423 4.74676 21.8992 4.6875 21.75 4.6875ZM9 18.1875H2.8125V5.8125H9C9.64647 5.8125 10.2665 6.06931 10.7236 6.52643C11.1807 6.98355 11.4375 7.60353 11.4375 8.25V19.1541C10.7782 18.5326 9.90609 18.1868 9 18.1875ZM21.1875 18.1875H15C14.0938 18.1871 13.2217 18.5332 12.5625 19.155V8.25C12.5625 7.60353 12.8193 6.98355 13.2764 6.52643C13.7335 6.06931 14.3535 5.8125 15 5.8125H21.1875V18.1875ZM15 8.4375H18.75C18.8992 8.4375 19.0423 8.49676 19.1477 8.60225C19.2532 8.70774 19.3125 8.85082 19.3125 9C19.3125 9.14918 19.2532 9.29226 19.1477 9.39775C19.0423 9.50324 18.8992 9.5625 18.75 9.5625H15C14.8508 9.5625 14.7077 9.50324 14.6023 9.39775C14.4968 9.29226 14.4375 9.14918 14.4375 9C14.4375 8.85082 14.4968 8.70774 14.6023 8.60225C14.7077 8.49676 14.8508 8.4375 15 8.4375ZM19.3125 12C19.3125 12.1492 19.2532 12.2923 19.1477 12.3977C19.0423 12.5032 18.8992 12.5625 18.75 12.5625H15C14.8508 12.5625 14.7077 12.5032 14.6023 12.3977C14.4968 12.2923 14.4375 12.1492 14.4375 12C14.4375 11.8508 14.4968 11.7077 14.6023 11.6023C14.7077 11.4968 14.8508 11.4375 15 11.4375H18.75C18.8992 11.4375 19.0423 11.4968 19.1477 11.6023C19.2532 11.7077 19.3125 11.8508 19.3125 12ZM19.3125 15C19.3125 15.1492 19.2532 15.2923 19.1477 15.3977C19.0423 15.5032 18.8992 15.5625 18.75 15.5625H15C14.8508 15.5625 14.7077 15.5032 14.6023 15.3977C14.4968 15.2923 14.4375 15.1492 14.4375 15C14.4375 14.8508 14.4968 14.7077 14.6023 14.6023C14.7077 14.4968 14.8508 14.4375 15 14.4375H18.75C18.8992 14.4375 19.0423 14.4968 19.1477 14.6023C19.2532 14.7077 19.3125 14.8508 19.3125 15Z" fill="#C987D9"/>
</svg>
