<svg width="24" height="24" viewBox="0 0 24 24" fill="none" xmlns="http://www.w3.org/2000/svg">
<path d="M7.97443 4.05188L2.91662 12L7.97912 19.9481C8.05912 20.074 8.08589 20.2264 8.05355 20.372C8.0212 20.5175 7.93239 20.6443 7.80662 20.7244C7.68079 20.8044 7.52835 20.8312 7.38279 20.7988C7.23723 20.7665 7.11047 20.6776 7.03037 20.5519L1.78037 12.3019C1.72298 12.2116 1.6925 12.1069 1.6925 12C1.6925 11.8931 1.72298 11.7884 1.78037 11.6981L7.03037 3.44813C7.11242 3.3268 7.23856 3.24226 7.38197 3.21248C7.52538 3.18271 7.67475 3.21004 7.79832 3.28868C7.92189 3.36731 8.00991 3.49104 8.04367 3.63357C8.07744 3.77609 8.05428 3.92616 7.97912 4.05188H7.97443ZM22.2244 11.6981L16.9744 3.44813C16.9359 3.38359 16.8847 3.32745 16.8241 3.28301C16.7634 3.23857 16.6945 3.20675 16.6213 3.18942C16.5481 3.17208 16.4722 3.1696 16.3981 3.1821C16.324 3.1946 16.2531 3.22184 16.1896 3.26221C16.1262 3.30257 16.0715 3.35525 16.0288 3.41712C15.9861 3.47899 15.9562 3.54879 15.9409 3.62241C15.9256 3.69603 15.9252 3.77197 15.9398 3.84573C15.9544 3.9195 15.9836 3.98959 16.0257 4.05188L21.0835 12L16.0257 19.9481C15.9457 20.074 15.9189 20.2264 15.9513 20.372C15.9836 20.5175 16.0724 20.6443 16.1982 20.7244C16.324 20.8044 16.4765 20.8312 16.622 20.7988C16.7676 20.7665 16.8943 20.6776 16.9744 20.5519L22.2244 12.3019C22.2818 12.2116 22.3123 12.1069 22.3123 12C22.3123 11.8931 22.2818 11.7884 22.2244 11.6981Z" fill="#C987D9"/>
</svg>
