<svg width="24" height="24" viewBox="0 0 24 24" fill="none" xmlns="http://www.w3.org/2000/svg">
<path d="M23.0626 11.625C23.0613 10.647 22.7775 9.69026 22.2453 8.8698C21.713 8.04933 20.9551 7.40014 20.0626 7.00031V6.75C20.0616 5.79841 19.746 4.87385 19.1648 4.12036C18.5836 3.36688 17.7695 2.82678 16.8493 2.58422C15.9291 2.34167 14.9546 2.41026 14.0775 2.77933C13.2004 3.1484 12.47 3.79721 12.0001 4.62469C11.5301 3.79721 10.7997 3.1484 9.92263 2.77933C9.04552 2.41026 8.07097 2.34167 7.15081 2.58422C6.23065 2.82678 5.41655 3.36688 4.83536 4.12036C4.25416 4.87385 3.9385 5.79841 3.93756 6.75V7.00031C3.04435 7.39879 2.2857 8.04748 1.75332 8.86795C1.22094 9.68842 0.937622 10.6455 0.937622 11.6236C0.937622 12.6017 1.22094 13.5588 1.75332 14.3792C2.2857 15.1997 3.04435 15.8484 3.93756 16.2469V16.5C3.9385 17.4516 4.25416 18.3762 4.83536 19.1296C5.41655 19.8831 6.23065 20.4232 7.15081 20.6658C8.07097 20.9083 9.04552 20.8397 9.92263 20.4707C10.7997 20.1016 11.5301 19.4528 12.0001 18.6253C12.47 19.4528 13.2004 20.1016 14.0775 20.4707C14.9546 20.8397 15.9291 20.9083 16.8493 20.6658C17.7695 20.4232 18.5836 19.8831 19.1648 19.1296C19.746 18.3762 20.0616 17.4516 20.0626 16.5V16.2469C20.9551 15.8478 21.7131 15.1992 22.2454 14.3792C22.7777 13.5591 23.0615 12.6026 23.0626 11.625ZM8.25006 19.6875C7.42162 19.6879 6.62557 19.3658 6.03057 18.7893C5.43558 18.2129 5.08838 17.4274 5.06256 16.5994C5.37162 16.658 5.68549 16.6875 6.00006 16.6875H6.75006C6.89924 16.6875 7.04231 16.6282 7.1478 16.5227C7.25329 16.4173 7.31256 16.2742 7.31256 16.125C7.31256 15.9758 7.25329 15.8327 7.1478 15.7273C7.04231 15.6218 6.89924 15.5625 6.75006 15.5625H6.00006C5.07065 15.5633 4.17094 15.2352 3.46012 14.6365C2.7493 14.0377 2.27319 13.2068 2.11605 12.2907C1.95891 11.3747 2.13086 10.4326 2.60148 9.63119C3.07209 8.82975 3.81104 8.22061 4.68756 7.91156C4.79727 7.87277 4.89226 7.80091 4.95942 7.70587C5.02658 7.61084 5.06262 7.49731 5.06256 7.38094V6.75C5.06256 5.90462 5.39838 5.09387 5.99615 4.4961C6.59393 3.89832 7.40468 3.5625 8.25006 3.5625C9.09543 3.5625 9.90619 3.89832 10.504 4.4961C11.1017 5.09387 11.4376 5.90462 11.4376 6.75V13.5984C11.0341 13.1539 10.5421 12.7987 9.99311 12.5557C9.44414 12.3127 8.8504 12.1873 8.25006 12.1875C8.10087 12.1875 7.9578 12.2468 7.85231 12.3523C7.74682 12.4577 7.68756 12.6008 7.68756 12.75C7.68756 12.8992 7.74682 13.0423 7.85231 13.1477C7.9578 13.2532 8.10087 13.3125 8.25006 13.3125C9.09543 13.3125 9.90619 13.6483 10.504 14.2461C11.1017 14.8439 11.4376 15.6546 11.4376 16.5C11.4376 17.3454 11.1017 18.1561 10.504 18.7539C9.90619 19.3517 9.09543 19.6875 8.25006 19.6875ZM18.0001 15.5625H17.2501C17.1009 15.5625 16.9578 15.6218 16.8523 15.7273C16.7468 15.8327 16.6876 15.9758 16.6876 16.125C16.6876 16.2742 16.7468 16.4173 16.8523 16.5227C16.9578 16.6282 17.1009 16.6875 17.2501 16.6875H18.0001C18.3146 16.6875 18.6285 16.658 18.9376 16.5994C18.918 17.2252 18.7146 17.8314 18.3527 18.3424C17.9908 18.8533 17.4865 19.2464 16.9026 19.4724C16.3187 19.6985 15.6811 19.7477 15.0695 19.6137C14.4579 19.4797 13.8993 19.1685 13.4634 18.719C13.0275 18.2696 12.7336 17.7017 12.6185 17.0862C12.5033 16.4708 12.572 15.835 12.8159 15.2583C13.0598 14.6817 13.4681 14.1896 13.9899 13.8436C14.5118 13.4975 15.1239 13.3128 15.7501 13.3125C15.8992 13.3125 16.0423 13.2532 16.1478 13.1477C16.2533 13.0423 16.3126 12.8992 16.3126 12.75C16.3126 12.6008 16.2533 12.4577 16.1478 12.3523C16.0423 12.2468 15.8992 12.1875 15.7501 12.1875C15.1497 12.1873 14.556 12.3127 14.007 12.5557C13.458 12.7987 12.966 13.1539 12.5626 13.5984V6.75C12.5626 5.90462 12.8984 5.09387 13.4962 4.4961C14.0939 3.89832 14.9047 3.5625 15.7501 3.5625C16.5954 3.5625 17.4062 3.89832 18.004 4.4961C18.6017 5.09387 18.9376 5.90462 18.9376 6.75V7.38094C18.9375 7.49731 18.9735 7.61084 19.0407 7.70587C19.1079 7.80091 19.2028 7.87277 19.3126 7.91156C20.1891 8.22061 20.928 8.82975 21.3986 9.63119C21.8693 10.4326 22.0412 11.3747 21.8841 12.2907C21.7269 13.2068 21.2508 14.0377 20.54 14.6365C19.8292 15.2352 18.9295 15.5633 18.0001 15.5625ZM19.3126 10.5C19.3126 10.6492 19.2533 10.7923 19.1478 10.8977C19.0423 11.0032 18.8992 11.0625 18.7501 11.0625H18.3751C17.5297 11.0625 16.7189 10.7267 16.1212 10.1289C15.5234 9.53113 15.1876 8.72038 15.1876 7.875V7.5C15.1876 7.35082 15.2468 7.20774 15.3523 7.10225C15.4578 6.99676 15.6009 6.9375 15.7501 6.9375C15.8992 6.9375 16.0423 6.99676 16.1478 7.10225C16.2533 7.20774 16.3126 7.35082 16.3126 7.5V7.875C16.3126 8.42201 16.5299 8.94661 16.9166 9.33341C17.3034 9.7202 17.828 9.9375 18.3751 9.9375H18.7501C18.8992 9.9375 19.0423 9.99676 19.1478 10.1023C19.2533 10.2077 19.3126 10.3508 19.3126 10.5ZM5.62506 11.0625H5.25006C5.10087 11.0625 4.9578 11.0032 4.85231 10.8977C4.74682 10.7923 4.68756 10.6492 4.68756 10.5C4.68756 10.3508 4.74682 10.2077 4.85231 10.1023C4.9578 9.99676 5.10087 9.9375 5.25006 9.9375H5.62506C6.17207 9.9375 6.69667 9.7202 7.08346 9.33341C7.47026 8.94661 7.68756 8.42201 7.68756 7.875V7.5C7.68756 7.35082 7.74682 7.20774 7.85231 7.10225C7.9578 6.99676 8.10087 6.9375 8.25006 6.9375C8.39924 6.9375 8.54231 6.99676 8.6478 7.10225C8.75329 7.20774 8.81256 7.35082 8.81256 7.5V7.875C8.81256 8.72038 8.47673 9.53113 7.87896 10.1289C7.28119 10.7267 6.47043 11.0625 5.62506 11.0625Z" fill="#C987D9"/>
</svg>
