<svg width="24" height="24" viewBox="0 0 24 24" fill="none" xmlns="http://www.w3.org/2000/svg">
<path d="M12.9375 12C12.9375 12.1854 12.8825 12.3667 12.7795 12.5208C12.6765 12.675 12.5301 12.7952 12.3588 12.8661C12.1875 12.9371 11.999 12.9557 11.8171 12.9195C11.6352 12.8833 11.4682 12.794 11.3371 12.6629C11.206 12.5318 11.1167 12.3648 11.0805 12.1829C11.0443 12.001 11.0629 11.8125 11.1339 11.6412C11.2048 11.4699 11.325 11.3235 11.4792 11.2205C11.6333 11.1175 11.8146 11.0625 12 11.0625C12.2486 11.0625 12.4871 11.1613 12.6629 11.3371C12.8387 11.5129 12.9375 11.7514 12.9375 12ZM7.875 11.0625C7.68958 11.0625 7.50832 11.1175 7.35415 11.2205C7.19998 11.3235 7.07982 11.4699 7.00886 11.6412C6.93791 11.8125 6.91934 12.001 6.95551 12.1829C6.99169 12.3648 7.08098 12.5318 7.21209 12.6629C7.3432 12.794 7.51025 12.8833 7.6921 12.9195C7.87396 12.9557 8.06246 12.9371 8.23377 12.8661C8.40507 12.7952 8.55149 12.675 8.6545 12.5208C8.75752 12.3667 8.8125 12.1854 8.8125 12C8.8125 11.7514 8.71373 11.5129 8.53791 11.3371C8.3621 11.1613 8.12364 11.0625 7.875 11.0625ZM16.125 11.0625C15.9396 11.0625 15.7583 11.1175 15.6042 11.2205C15.45 11.3235 15.3298 11.4699 15.2589 11.6412C15.1879 11.8125 15.1693 12.001 15.2055 12.1829C15.2417 12.3648 15.331 12.5318 15.4621 12.6629C15.5932 12.794 15.7602 12.8833 15.9421 12.9195C16.124 12.9557 16.3125 12.9371 16.4838 12.8661C16.6551 12.7952 16.8015 12.675 16.9045 12.5208C17.0075 12.3667 17.0625 12.1854 17.0625 12C17.0625 11.7514 16.9637 11.5129 16.7879 11.3371C16.6121 11.1613 16.3736 11.0625 16.125 11.0625ZM21.5625 12C21.5628 13.6577 21.1323 15.287 20.313 16.7281C19.4937 18.1692 18.3138 19.3725 16.8892 20.2201C15.4646 21.0677 13.844 21.5303 12.1867 21.5627C10.5293 21.595 8.89195 21.196 7.43531 20.4047L4.16625 21.4941C3.93499 21.5712 3.68683 21.5824 3.44957 21.5264C3.2123 21.4704 2.99533 21.3494 2.82295 21.1771C2.65057 21.0047 2.52961 20.7877 2.47362 20.5504C2.41762 20.3132 2.42882 20.065 2.50594 19.8338L3.59531 16.5647C2.90087 15.285 2.50781 13.8637 2.44609 12.409C2.38438 10.9544 2.65565 9.50484 3.23921 8.17095C3.82278 6.83705 4.70322 5.65403 5.81342 4.71208C6.92362 3.77013 8.23425 3.09413 9.64538 2.73563C11.0565 2.37712 12.5309 2.34557 13.956 2.64339C15.3812 2.94121 16.7196 3.56054 17.869 4.45414C19.0185 5.34774 19.9488 6.49202 20.5888 7.79973C21.2289 9.10744 21.5619 10.544 21.5625 12ZM20.4375 12C20.4372 10.7057 20.1391 9.42882 19.5664 8.26815C18.9936 7.10749 18.1615 6.09415 17.1344 5.30654C16.1073 4.51893 14.9128 3.97816 13.6433 3.72608C12.3738 3.474 11.0633 3.51736 9.81323 3.85281C8.56315 4.18826 7.40701 4.8068 6.43424 5.66058C5.46148 6.51436 4.69817 7.58049 4.20338 8.77648C3.70858 9.97247 3.49557 11.2663 3.58082 12.5577C3.66607 13.8492 4.0473 15.1038 4.695 16.2244C4.73501 16.2934 4.75988 16.3701 4.76796 16.4495C4.77604 16.5289 4.76715 16.609 4.74188 16.6847L3.57375 20.1891C3.56273 20.2221 3.56113 20.2576 3.56913 20.2914C3.57713 20.3253 3.59441 20.3563 3.61904 20.381C3.64366 20.4056 3.67466 20.4229 3.70855 20.4309C3.74245 20.4389 3.7779 20.4373 3.81094 20.4263L7.3125 19.2581C7.37 19.2392 7.4301 19.2294 7.49063 19.2291C7.58936 19.2296 7.68627 19.2558 7.77188 19.305C9.05462 20.0478 10.5104 20.4395 11.9927 20.4408C13.475 20.4421 14.9315 20.0529 16.2155 19.3123C17.4995 18.5717 18.5658 17.5059 19.307 16.2223C20.0482 14.9386 20.4381 13.4823 20.4375 12Z" fill="#C987D9"/>
</svg>
