<svg width="128" height="128" viewBox="0 0 128 128" fill="none" xmlns="http://www.w3.org/2000/svg">
<path fill-rule="evenodd" clip-rule="evenodd" d="M63.5476 8C31.7253 8 6 33.8957 6 65.9323C6 91.5408 22.4831 113.218 45.3494 120.89C48.2083 121.467 49.2555 119.644 49.2555 118.11C49.2555 116.767 49.1613 112.163 49.1613 107.367C33.1529 110.82 29.8193 100.461 29.8193 100.461C27.2467 93.7466 23.4348 92.021 23.4348 92.021C18.1953 88.4721 23.8165 88.4721 23.8165 88.4721C29.6285 88.8559 32.6782 94.4187 32.6782 94.4187C37.8223 103.242 46.1116 100.749 49.4463 99.2142C49.9222 95.4734 51.4477 92.8838 53.0674 91.4454C40.2996 90.1024 26.8662 85.1151 26.8662 62.8625C26.8662 56.5321 29.1514 51.353 32.7725 47.325C32.2011 45.8866 30.1998 39.9388 33.3449 31.9783C33.3449 31.9783 38.204 30.4434 49.1601 37.9249C53.8508 36.6568 58.6882 36.0117 63.5476 36.0062C68.4066 36.0062 73.3599 36.6783 77.9339 37.9249C88.8912 30.4434 93.7502 31.9783 93.7502 31.9783C96.8953 39.9388 94.8928 45.8866 94.3215 47.325C98.0379 51.353 100.229 56.5321 100.229 62.8625C100.229 85.1151 86.7956 90.0059 73.9324 91.4454C76.0291 93.2676 77.8385 96.7199 77.8385 102.187C77.8385 109.956 77.7442 116.191 77.7442 118.109C77.7442 119.644 78.7926 121.467 81.6503 120.891C104.517 113.217 121 91.5408 121 65.9323C121.094 33.8957 95.2745 8 63.5476 8Z" fill="#F9FAFB"/>
</svg>
