<svg width="32" height="32" viewBox="0 0 32 32" fill="none" xmlns="http://www.w3.org/2000/svg">
<path fill-rule="evenodd" clip-rule="evenodd" d="M14.1827 30.8526C12.7587 30.8526 11.3713 30.5577 10.0547 29.9749C7.50389 28.8457 5.53818 26.7703 4.51646 24.128C3.49475 21.488 3.54046 18.5989 4.64218 15.9954C5.26618 14.5189 6.22618 13.1886 7.41704 12.144C7.34618 10.5417 7.63875 8.91659 8.26275 7.44001C9.91075 3.54287 13.689 1.02401 17.8856 1.02401H18.2285H20.921C23.1427 1.02401 25.8216 1.02173 26.1416 1.02173C26.9165 1.02173 27.4902 1.51316 27.5953 1.61373C27.6982 1.70516 28.2239 2.22173 28.2239 3.16116C28.2239 3.61373 28.2216 7.2343 28.2193 9.63201L28.217 11.6983C28.2125 13.1406 27.9245 14.5486 27.3599 15.8834C26.7359 17.36 25.7759 18.6903 24.585 19.7349C24.6559 21.3372 24.3633 22.9623 23.7393 24.4389C22.0867 28.3337 18.3382 30.8526 14.1827 30.8526ZM8.02732 15.2732C7.62046 15.808 7.27761 16.3977 7.01018 17.0286C6.17818 18.9943 6.14618 21.1749 6.91646 23.1657C7.68675 25.1566 9.16789 26.72 11.0856 27.568C12.0753 28.0069 13.1176 28.2286 14.185 28.2286C17.3073 28.2286 20.1279 26.3337 21.3667 23.3989C21.6365 22.7634 21.8239 22.0983 21.9245 21.424C20.6262 21.9954 19.2045 22.2949 17.801 22.2949C16.3793 22.2949 14.9896 22 13.673 21.4172C12.1462 20.7406 10.7885 19.6914 9.74389 18.3794C9.01932 17.4674 8.42732 16.3954 8.02732 15.2732ZM10.1599 13.3463C10.6925 15.872 12.3862 17.9863 14.7039 19.0126C15.6936 19.4514 16.7359 19.6732 17.8033 19.6732C19.225 19.6732 20.617 19.2777 21.8376 18.528C21.305 16.0023 19.6113 13.888 17.2936 12.8617C16.3039 12.4229 15.2616 12.2012 14.1942 12.2012C12.7725 12.1989 11.3782 12.5966 10.1599 13.3463ZM14.2856 9.57716C15.6776 9.58858 17.0353 9.88573 18.3222 10.4549C19.849 11.1314 21.2067 12.1806 22.2513 13.4903C22.9782 14.4023 23.5702 15.4743 23.9702 16.5966C24.3793 16.0617 24.7199 15.472 24.9873 14.8412C25.465 13.7097 25.465 12.4092 25.465 11.2594C25.465 11.0217 25.465 10.7703 25.465 10.5097V10.2103C25.465 9.60687 25.465 8.92344 25.465 8.29258C25.4627 7.45601 25.4627 6.61487 25.465 5.8903V5.70059C25.465 5.46287 25.465 5.24344 25.465 5.04687V3.78516C25.465 3.78516 17.977 3.78516 17.9748 3.78516C17.9062 3.78516 17.865 3.78516 17.8422 3.78516C17.833 3.78516 17.8239 3.78516 17.8147 3.78516H17.8056C14.697 3.78516 11.8125 5.66859 10.6285 8.47087C10.3587 9.1063 10.1713 9.77144 10.0707 10.4457C11.3416 9.88801 12.729 9.5863 14.1005 9.57487L14.2856 9.57716Z" fill="#F9FAFB"/>
<path fill-rule="evenodd" clip-rule="evenodd" d="M14.1827 30.7612C12.7725 30.7612 11.3965 30.4686 10.0913 29.8903C7.56331 28.7703 5.6136 26.7132 4.60102 24.0937C3.58845 21.4766 3.63188 18.6126 4.72445 16.0297C5.35074 14.5509 6.31074 13.2229 7.50845 12.1829C7.43074 10.5783 7.71874 8.95316 8.34502 7.4743C9.97931 3.61144 13.7233 1.11316 17.8833 1.11316H18.2262C19.7256 1.11316 25.6547 1.11087 26.137 1.11087C26.8776 1.11087 27.4216 1.57716 27.529 1.67773C27.6342 1.77144 28.1279 2.26059 28.1279 3.15887C28.1279 3.7303 28.1233 9.39887 28.121 11.1223V11.696C28.1165 13.1269 27.8307 14.5234 27.2707 15.8469C26.6445 17.3257 25.6845 18.6537 24.4867 19.6937C24.5645 21.2983 24.2765 22.9234 23.6502 24.4023C22.0182 28.2629 18.3016 30.7612 14.1827 30.7612ZM8.05931 15.0857C7.59988 15.6617 7.22045 16.3017 6.9256 16.9943C6.08445 18.9829 6.05017 21.1863 6.8296 23.2C7.60902 25.2114 9.10617 26.7932 11.0467 27.6526C12.0479 28.096 13.1039 28.32 14.1827 28.32C17.3416 28.32 20.1942 26.4023 21.449 23.4332C21.7439 22.736 21.9405 22.0114 22.0342 21.2709C20.7062 21.8812 19.2502 22.2034 17.7987 22.2034C16.3885 22.2034 15.0125 21.9109 13.7073 21.3326C12.1942 20.6629 10.8479 19.6206 9.81245 18.3223C9.05817 17.3692 8.45474 16.2583 8.05931 15.0857ZM10.057 13.3006C10.5805 15.8857 12.2925 18.0434 14.665 19.0949C15.6662 19.5383 16.7199 19.7623 17.801 19.7623C19.2639 19.7623 20.6902 19.3509 21.9382 18.5692C21.4147 15.984 19.7027 13.8263 17.3302 12.7749C16.329 12.3314 15.2753 12.1074 14.1942 12.1074C12.7313 12.1074 11.305 12.5212 10.057 13.3006ZM14.1942 9.66859C15.6045 9.66859 16.9805 9.96116 18.2856 10.5394C19.7987 11.2092 21.145 12.2492 22.1805 13.5497C22.9393 14.5029 23.5427 15.6137 23.9382 16.7886C24.3976 16.2126 24.777 15.5726 25.0719 14.88C25.5565 13.7326 25.5565 12.4206 25.5565 11.264C25.5565 10.9897 25.5565 10.6949 25.5565 10.3909V10.3543C25.5565 9.70744 25.5565 8.97601 25.5565 8.29487C25.5542 7.44687 25.5542 6.58516 25.5565 5.89259V5.83316C25.5565 5.54516 25.5565 5.2823 25.5565 5.04916V3.69601H17.9793C17.9016 3.69601 17.8582 3.69601 17.833 3.69601C17.8262 3.69601 17.817 3.69601 17.8102 3.69601H17.8056C14.6605 3.69601 11.7439 5.6023 10.5439 8.43659C10.249 9.13373 10.0525 9.8583 9.95874 10.5989C11.2867 9.98859 12.7427 9.66859 14.1942 9.66859Z" fill="#F9FAFB"/>
<path fill-rule="evenodd" clip-rule="evenodd" d="M13.7212 16.3717C14.4122 16.3717 14.9712 15.8113 14.9712 15.1217C14.9712 14.4322 14.4122 13.8717 13.7212 13.8717C13.0302 13.8717 12.4712 14.4322 12.4712 15.1217C12.4712 15.8113 13.0302 16.3717 13.7212 16.3717Z" fill="#F9FAFB"/>
<path fill-rule="evenodd" clip-rule="evenodd" d="M19.2627 16.4083C19.2627 17.3741 18.4807 18.1583 17.5127 18.1583C16.5477 18.1583 15.7627 17.3741 15.7627 16.4083C15.7627 15.4425 16.5447 14.6583 17.5127 14.6583C18.4777 14.6612 19.2627 15.4425 19.2627 16.4083Z" fill="#F9FAFB"/>
</svg>
