<svg width="24" height="24" viewBox="0 0 24 24" fill="none" xmlns="http://www.w3.org/2000/svg">
<path d="M21.4865 19.9688C20.0043 17.4075 17.6774 15.6103 14.9736 14.8481C16.2882 14.1799 17.3393 13.0885 17.9576 11.7498C18.5759 10.4111 18.7254 8.90314 18.3818 7.46913C18.0382 6.03511 17.2217 4.75859 16.0639 3.8454C14.9061 2.93221 13.4745 2.43558 11.9999 2.43558C10.5253 2.43558 9.09368 2.93221 7.93587 3.8454C6.77806 4.75859 5.96155 6.03511 5.61799 7.46913C5.27444 8.90314 5.42386 10.4111 6.04217 11.7498C6.66048 13.0885 7.71164 14.1799 9.02615 14.8481C6.3224 15.6094 3.99552 17.4066 2.51333 19.9688C2.47264 20.0328 2.44531 20.1044 2.43299 20.1792C2.42068 20.2541 2.42364 20.3307 2.44169 20.4044C2.45974 20.478 2.4925 20.5473 2.53802 20.608C2.58353 20.6687 2.64086 20.7196 2.70654 20.7575C2.77222 20.7955 2.8449 20.8198 2.92021 20.8289C2.99552 20.8381 3.0719 20.8319 3.14476 20.8108C3.21762 20.7896 3.28545 20.754 3.34417 20.7059C3.4029 20.6579 3.45129 20.5985 3.48646 20.5313C5.2874 17.4197 8.46927 15.5625 11.9999 15.5625C15.5305 15.5625 18.7124 17.4197 20.5133 20.5313C20.5485 20.5985 20.5969 20.6579 20.6556 20.7059C20.7143 20.754 20.7822 20.7896 20.855 20.8108C20.9279 20.8319 21.0043 20.8381 21.0796 20.8289C21.1549 20.8198 21.2276 20.7955 21.2933 20.7575C21.3589 20.7196 21.4163 20.6687 21.4618 20.608C21.5073 20.5473 21.5401 20.478 21.5581 20.4044C21.5762 20.3307 21.5791 20.2541 21.5668 20.1792C21.5545 20.1044 21.5272 20.0328 21.4865 19.9688ZM6.5624 9.00001C6.5624 7.92458 6.8813 6.87329 7.47878 5.9791C8.07626 5.08491 8.92548 4.38797 9.91906 3.97642C10.9126 3.56487 12.0059 3.45719 13.0607 3.66699C14.1155 3.8768 15.0843 4.39467 15.8448 5.15512C16.6052 5.91557 17.1231 6.88444 17.3329 7.93921C17.5427 8.99398 17.435 10.0873 17.0235 11.0809C16.6119 12.0744 15.915 12.9236 15.0208 13.5211C14.1266 14.1186 13.0753 14.4375 11.9999 14.4375C10.5583 14.4358 9.17628 13.8623 8.15692 12.843C7.13757 11.8236 6.56413 10.4416 6.5624 9.00001Z" fill="#F9FAFB"/>
</svg>
