<svg width="24" height="24" viewBox="0 0 24 24" fill="none" xmlns="http://www.w3.org/2000/svg">
<path d="M20.25 6.1875H5.25C5.00136 6.1875 4.7629 6.08873 4.58709 5.91291C4.41127 5.7371 4.3125 5.49864 4.3125 5.25C4.3125 5.00136 4.41127 4.7629 4.58709 4.58709C4.7629 4.41127 5.00136 4.3125 5.25 4.3125H18C18.1492 4.3125 18.2923 4.25324 18.3977 4.14775C18.5032 4.04226 18.5625 3.89918 18.5625 3.75C18.5625 3.60082 18.5032 3.45774 18.3977 3.35225C18.2923 3.24676 18.1492 3.1875 18 3.1875H5.25C4.70299 3.1875 4.17839 3.4048 3.79159 3.79159C3.4048 4.17839 3.1875 4.70299 3.1875 5.25V17.25C3.1875 17.797 3.4048 18.3216 3.79159 18.7084C4.17839 19.0952 4.70299 19.3125 5.25 19.3125H20.25C20.5981 19.3125 20.9319 19.1742 21.1781 18.9281C21.4242 18.6819 21.5625 18.3481 21.5625 18V7.5C21.5625 7.1519 21.4242 6.81806 21.1781 6.57192C20.9319 6.32578 20.5981 6.1875 20.25 6.1875ZM20.4375 18C20.4375 18.0497 20.4177 18.0974 20.3826 18.1326C20.3474 18.1677 20.2997 18.1875 20.25 18.1875H5.25C5.00136 18.1875 4.7629 18.0887 4.58709 17.9129C4.41127 17.7371 4.3125 17.4986 4.3125 17.25V7.08656C4.60255 7.23544 4.92397 7.3129 5.25 7.3125H20.25C20.2997 7.3125 20.3474 7.33225 20.3826 7.36742C20.4177 7.40258 20.4375 7.45027 20.4375 7.5V18ZM17.8125 12.375C17.8125 12.5604 17.7575 12.7417 17.6545 12.8958C17.5515 13.05 17.4051 13.1702 17.2338 13.2411C17.0625 13.3121 16.874 13.3307 16.6921 13.2945C16.5102 13.2583 16.3432 13.169 16.2121 13.0379C16.081 12.9068 15.9917 12.7398 15.9555 12.5579C15.9193 12.376 15.9379 12.1875 16.0089 12.0162C16.0798 11.8449 16.2 11.6985 16.3542 11.5955C16.5083 11.4925 16.6896 11.4375 16.875 11.4375C17.1236 11.4375 17.3621 11.5363 17.5379 11.7121C17.7137 11.8879 17.8125 12.1264 17.8125 12.375Z" fill="#C987D9"/>
</svg>
