<svg width="24" height="24" viewBox="0 0 24 24" fill="none" xmlns="http://www.w3.org/2000/svg">
<path d="M12.9376 19.125C12.9376 19.3104 12.8826 19.4917 12.7796 19.6458C12.6765 19.8 12.5301 19.9202 12.3588 19.9911C12.1875 20.0621 11.999 20.0807 11.8172 20.0445C11.6353 20.0083 11.4682 19.919 11.3371 19.7879C11.206 19.6568 11.1167 19.4898 11.0806 19.3079C11.0444 19.126 11.063 18.9375 11.1339 18.7662C11.2049 18.5949 11.325 18.4485 11.4792 18.3455C11.6334 18.2425 11.8146 18.1875 12.0001 18.1875C12.2487 18.1875 12.4871 18.2863 12.663 18.4621C12.8388 18.6379 12.9376 18.8764 12.9376 19.125ZM22.1072 8.30156C19.2575 5.96419 15.6857 4.68675 12.0001 4.68675C8.31436 4.68675 4.7426 5.96419 1.89286 8.30156C1.83544 8.34835 1.78782 8.40602 1.75274 8.47126C1.71766 8.5365 1.69582 8.60803 1.68845 8.68174C1.68109 8.75545 1.68836 8.82988 1.70984 8.90077C1.73132 8.97166 1.7666 9.03761 1.81363 9.09483C1.86067 9.15205 1.91855 9.19942 1.98394 9.23422C2.04933 9.26901 2.12095 9.29055 2.19469 9.29759C2.26843 9.30464 2.34283 9.29704 2.41363 9.27526C2.48442 9.25347 2.55022 9.21791 2.60724 9.17063C5.25567 6.99871 8.57494 5.81174 12.0001 5.81174C15.4252 5.81174 18.7444 6.99871 21.3929 9.17063C21.4499 9.21791 21.5157 9.25347 21.5865 9.27526C21.6573 9.29704 21.7317 9.30464 21.8054 9.29759C21.8791 9.29055 21.9508 9.26901 22.0162 9.23422C22.0816 9.19942 22.1394 9.15205 22.1865 9.09483C22.2335 9.03761 22.2688 8.97166 22.2903 8.90077C22.3117 8.82988 22.319 8.75545 22.3116 8.68174C22.3043 8.60803 22.2824 8.5365 22.2474 8.47126C22.2123 8.40602 22.1647 8.34835 22.1072 8.30156ZM19.0997 11.6569C17.0791 10.0571 14.5773 9.18659 12.0001 9.18659C9.42276 9.18659 6.92101 10.0571 4.90036 11.6569C4.78338 11.7496 4.70803 11.885 4.69088 12.0333C4.67374 12.1816 4.71621 12.3307 4.80896 12.4477C4.9017 12.5646 5.03712 12.64 5.18542 12.6571C5.33372 12.6743 5.48275 12.6318 5.59974 12.5391C7.42146 11.0971 9.67672 10.3126 12.0001 10.3126C14.3234 10.3126 16.5786 11.0971 18.4004 12.5391C18.5004 12.6163 18.6236 12.6576 18.7501 12.6563C18.8668 12.6563 18.9807 12.6199 19.0758 12.5523C19.171 12.4847 19.2428 12.3892 19.2812 12.2789C19.3197 12.1687 19.3228 12.0492 19.2903 11.9371C19.2578 11.8249 19.1912 11.7257 19.0997 11.6531V11.6569ZM16.081 15.0141C14.8951 14.1515 13.4664 13.6868 12.0001 13.6868C10.5337 13.6868 9.10497 14.1515 7.91911 15.0141C7.80207 15.1032 7.72459 15.2346 7.70326 15.3801C7.68193 15.5256 7.71847 15.6737 7.80502 15.7927C7.89158 15.9116 8.02128 15.9919 8.16633 16.0163C8.31138 16.0408 8.46023 16.0074 8.58099 15.9234C9.57452 15.2008 10.7715 14.8115 12.0001 14.8115C13.2286 14.8115 14.4256 15.2008 15.4191 15.9234C15.5397 16.0112 15.6902 16.0474 15.8375 16.0242C15.9849 16.001 16.1169 15.9202 16.2047 15.7997C16.2925 15.6791 16.3287 15.5286 16.3055 15.3813C16.2823 15.2339 16.2015 15.1019 16.081 15.0141Z" fill="#C987D9"/>
</svg>
